<svg xmlns="http://www.w3.org/2000/svg" version="1.1" xmlns:xlink="http://www.w3.org/1999/xlink" xmlns:svgjs="http://svgjs.dev/svgjs" viewBox="0 0 800 800"><circle r="8.5" cx="187" cy="14" stroke-width="2" stroke="hsl(260, 50%, 50%)" fill="none" opacity="0.52"></circle><circle r="13" cx="606" cy="501" stroke-width="2" stroke="hsl(277, 50%, 50%)" fill="none" opacity="0.46"></circle><circle r="3" cx="375" cy="116" stroke-width="2" stroke="hsl(25, 50%, 50%)" fill="none" opacity="0.76"></circle><circle r="7.5" cx="258" cy="571" stroke-width="2" stroke="hsl(139, 50%, 50%)" fill="none" opacity="0.92"></circle><circle r="5" cx="400" cy="525" stroke-width="2" stroke="hsl(17, 50%, 50%)" fill="none" opacity="0.59"></circle><circle r="11.5" cx="739" cy="320" stroke-width="2" stroke="hsl(210, 50%, 50%)" fill="none" opacity="0.46"></circle><circle r="14" cx="569" cy="253" stroke-width="2" stroke="hsl(230, 50%, 50%)" fill="none" opacity="0.88"></circle><circle r="10" cx="57" cy="64" stroke-width="2" stroke="hsl(240, 50%, 50%)" fill="none" opacity="0.90"></circle><circle r="10.5" cx="638" cy="780" stroke-width="2" stroke="hsl(292, 50%, 50%)" fill="none" opacity="0.87"></circle><circle r="14.5" cx="680" cy="715" stroke-width="2" stroke="hsl(278, 50%, 50%)" fill="none" opacity="0.94"></circle><circle r="8.5" cx="486" cy="61" stroke-width="2" stroke="hsl(94, 50%, 50%)" fill="none" opacity="0.99"></circle><circle r="12.5" cx="179" cy="678" stroke-width="2" stroke="hsl(212, 50%, 50%)" fill="none" opacity="0.65"></circle><circle r="3.5" cx="435" cy="100" stroke-width="2" stroke="hsl(40, 50%, 50%)" fill="none" opacity="0.97"></circle><circle r="6" cx="350" cy="481" stroke-width="2" stroke="hsl(34, 50%, 50%)" fill="none" opacity="0.19"></circle><circle r="16.5" cx="671" cy="403" stroke-width="2" stroke="hsl(286, 50%, 50%)" fill="none" opacity="0.41"></circle><circle r="5.5" cx="355" cy="264" stroke-width="2" stroke="hsl(34, 50%, 50%)" fill="none" opacity="0.29"></circle><circle r="9.5" cx="150" cy="649" stroke-width="2" stroke="hsl(225, 50%, 50%)" fill="none" opacity="0.64"></circle><circle r="5.5" cx="371" cy="781" stroke-width="2" stroke="hsl(26, 50%, 50%)" fill="none" opacity="0.40"></circle><circle r="8.5" cx="584" cy="683" stroke-width="2" stroke="hsl(249, 50%, 50%)" fill="none" opacity="0.52"></circle><circle r="6.5" cx="787" cy="12" stroke-width="2" stroke="hsl(226, 50%, 50%)" fill="none" opacity="0.22"></circle><circle r="9" cx="215" cy="386" stroke-width="2" stroke="hsl(181, 50%, 50%)" fill="none" opacity="0.14"></circle><circle r="11" cx="632" cy="741" stroke-width="2" stroke="hsl(291, 50%, 50%)" fill="none" opacity="0.56"></circle><circle r="12" cx="74" cy="573" stroke-width="2" stroke="hsl(221, 50%, 50%)" fill="none" opacity="0.36"></circle><circle r="13" cx="572" cy="558" stroke-width="2" stroke="hsl(230, 50%, 50%)" fill="none" opacity="0.35"></circle><circle r="7" cx="785" cy="495" stroke-width="2" stroke="hsl(157, 50%, 50%)" fill="none" opacity="0.65"></circle><circle r="2.5" cx="325" cy="297" stroke-width="2" stroke="hsl(67, 50%, 50%)" fill="none" opacity="0.60"></circle><circle r="10" cx="712" cy="551" stroke-width="2" stroke="hsl(256, 50%, 50%)" fill="none" opacity="0.15"></circle><circle r="10" cx="220" cy="459" stroke-width="2" stroke="hsl(181, 50%, 50%)" fill="none" opacity="0.82"></circle><circle r="7.5" cx="267" cy="523" stroke-width="2" stroke="hsl(124, 50%, 50%)" fill="none" opacity="0.32"></circle><circle r="7" cx="304" cy="580" stroke-width="2" stroke="hsl(80, 50%, 50%)" fill="none" opacity="0.54"></circle><circle r="9.5" cx="163" cy="37" stroke-width="2" stroke="hsl(274, 50%, 50%)" fill="none" opacity="0.80"></circle><circle r="14" cx="644" cy="659" stroke-width="2" stroke="hsl(292, 50%, 50%)" fill="none" opacity="0.18"></circle><circle r="10" cx="157" cy="395" stroke-width="2" stroke="hsl(225, 50%, 50%)" fill="none" opacity="0.55"></circle><circle r="9.5" cx="775" cy="74" stroke-width="2" stroke="hsl(185, 50%, 50%)" fill="none" opacity="0.96"></circle><circle r="9.5" cx="700" cy="581" stroke-width="2" stroke="hsl(268, 50%, 50%)" fill="none" opacity="0.30"></circle><circle r="10" cx="149" cy="431" stroke-width="2" stroke="hsl(229, 50%, 50%)" fill="none" opacity="0.26"></circle><circle r="5" cx="178" cy="235" stroke-width="2" stroke="hsl(212, 50%, 50%)" fill="none" opacity="0.82"></circle><circle r="6.5" cx="284" cy="44" stroke-width="2" stroke="hsl(97, 50%, 50%)" fill="none" opacity="0.61"></circle><circle r="9" cx="52" cy="22" stroke-width="2" stroke="hsl(246, 50%, 50%)" fill="none" opacity="0.51"></circle><circle r="9.5" cx="197" cy="46" stroke-width="2" stroke="hsl(245, 50%, 50%)" fill="none" opacity="0.26"></circle><circle r="11.5" cx="130" cy="87" stroke-width="2" stroke="hsl(277, 50%, 50%)" fill="none" opacity="0.11"></circle><circle r="7.5" cx="717" cy="50" stroke-width="2" stroke="hsl(219, 50%, 50%)" fill="none" opacity="0.72"></circle><circle r="7" cx="785" cy="569" stroke-width="2" stroke="hsl(157, 50%, 50%)" fill="none" opacity="0.88"></circle><circle r="11.5" cx="611" cy="285" stroke-width="2" stroke="hsl(277, 50%, 50%)" fill="none" opacity="0.66"></circle><circle r="9.5" cx="574" cy="410" stroke-width="2" stroke="hsl(230, 50%, 50%)" fill="none" opacity="0.61"></circle><circle r="17.5" cx="616" cy="605" stroke-width="2" stroke="hsl(286, 50%, 50%)" fill="none" opacity="0.80"></circle><circle r="15" cx="675" cy="486" stroke-width="2" stroke="hsl(278, 50%, 50%)" fill="none" opacity="0.88"></circle><circle r="16" cx="709" cy="437" stroke-width="2" stroke="hsl(256, 50%, 50%)" fill="none" opacity="0.60"></circle><circle r="9.5" cx="279" cy="336" stroke-width="2" stroke="hsl(109, 50%, 50%)" fill="none" opacity="0.66"></circle><circle r="4" cx="306" cy="295" stroke-width="2" stroke="hsl(80, 50%, 50%)" fill="none" opacity="0.54"></circle><circle r="7.5" cx="780" cy="708" stroke-width="2" stroke="hsl(157, 50%, 50%)" fill="none" opacity="0.80"></circle><circle r="14" cx="662" cy="322" stroke-width="2" stroke="hsl(291, 50%, 50%)" fill="none" opacity="0.75"></circle><circle r="13" cx="210" cy="84" stroke-width="2" stroke="hsl(223, 50%, 50%)" fill="none" opacity="0.11"></circle><circle r="8.5" cx="223" cy="423" stroke-width="2" stroke="hsl(181, 50%, 50%)" fill="none" opacity="0.11"></circle><circle r="8" cx="301" cy="663" stroke-width="2" stroke="hsl(80, 50%, 50%)" fill="none" opacity="0.96"></circle><circle r="11" cx="117" cy="781" stroke-width="2" stroke="hsl(232, 50%, 50%)" fill="none" opacity="0.74"></circle><circle r="7.5" cx="461" cy="540" stroke-width="2" stroke="hsl(43, 50%, 50%)" fill="none" opacity="0.39"></circle><circle r="14.5" cx="89" cy="474" stroke-width="2" stroke="hsl(228, 50%, 50%)" fill="none" opacity="0.37"></circle><circle r="5" cx="318" cy="265" stroke-width="2" stroke="hsl(67, 50%, 50%)" fill="none" opacity="0.44"></circle><circle r="6" cx="739" cy="143" stroke-width="2" stroke="hsl(207, 50%, 50%)" fill="none" opacity="0.25"></circle><circle r="13.5" cx="77" cy="672" stroke-width="2" stroke="hsl(225, 50%, 50%)" fill="none" opacity="0.33"></circle><circle r="9" cx="41" cy="114" stroke-width="2" stroke="hsl(217, 50%, 50%)" fill="none" opacity="0.77"></circle><circle r="9.5" cx="28" cy="176" stroke-width="2" stroke="hsl(202, 50%, 50%)" fill="none" opacity="0.26"></circle><circle r="13" cx="179" cy="611" stroke-width="2" stroke="hsl(212, 50%, 50%)" fill="none" opacity="0.71"></circle><circle r="11.5" cx="34" cy="218" stroke-width="2" stroke="hsl(204, 50%, 50%)" fill="none" opacity="0.30"></circle><circle r="11" cx="714" cy="687" stroke-width="2" stroke="hsl(242, 50%, 50%)" fill="none" opacity="0.69"></circle><circle r="16" cx="80" cy="357" stroke-width="2" stroke="hsl(225, 50%, 50%)" fill="none" opacity="0.46"></circle><circle r="9" cx="17" cy="771" stroke-width="2" stroke="hsl(198, 50%, 50%)" fill="none" opacity="0.37"></circle><circle r="15.5" cx="642" cy="77" stroke-width="2" stroke="hsl(250, 50%, 50%)" fill="none" opacity="0.16"></circle><circle r="7.5" cx="342" cy="688" stroke-width="2" stroke="hsl(44, 50%, 50%)" fill="none" opacity="0.20"></circle><circle r="11" cx="234" cy="306" stroke-width="2" stroke="hsl(168, 50%, 50%)" fill="none" opacity="0.52"></circle><circle r="10.5" cx="673" cy="774" stroke-width="2" stroke="hsl(286, 50%, 50%)" fill="none" opacity="0.22"></circle><circle r="11" cx="239" cy="687" stroke-width="2" stroke="hsl(154, 50%, 50%)" fill="none" opacity="0.28"></circle><circle r="9" cx="668" cy="38" stroke-width="2" stroke="hsl(235, 50%, 50%)" fill="none" opacity="0.26"></circle><circle r="7" cx="781" cy="676" stroke-width="2" stroke="hsl(157, 50%, 50%)" fill="none" opacity="0.82"></circle><circle r="10.5" cx="139" cy="236" stroke-width="2" stroke="hsl(229, 50%, 50%)" fill="none" opacity="0.65"></circle><circle r="10.5" cx="533" cy="283" stroke-width="2" stroke="hsl(164, 50%, 50%)" fill="none" opacity="0.30"></circle><circle r="8.5" cx="55" cy="504" stroke-width="2" stroke="hsl(215, 50%, 50%)" fill="none" opacity="0.67"></circle><circle r="11.5" cx="710" cy="154" stroke-width="2" stroke="hsl(251, 50%, 50%)" fill="none" opacity="0.81"></circle><circle r="13" cx="649" cy="175" stroke-width="2" stroke="hsl(289, 50%, 50%)" fill="none" opacity="0.16"></circle><circle r="4.5" cx="790" cy="281" stroke-width="2" stroke="hsl(141, 50%, 50%)" fill="none" opacity="0.81"></circle><circle r="7" cx="417" cy="655" stroke-width="2" stroke="hsl(18, 50%, 50%)" fill="none" opacity="0.55"></circle><circle r="9.5" cx="676" cy="677" stroke-width="2" stroke="hsl(278, 50%, 50%)" fill="none" opacity="0.46"></circle><circle r="5" cx="292" cy="258" stroke-width="2" stroke="hsl(95, 50%, 50%)" fill="none" opacity="0.33"></circle><circle r="9" cx="73" cy="171" stroke-width="2" stroke="hsl(223, 50%, 50%)" fill="none" opacity="0.24"></circle><circle r="7.5" cx="55" cy="540" stroke-width="2" stroke="hsl(215, 50%, 50%)" fill="none" opacity="0.37"></circle><circle r="5.5" cx="421" cy="779" stroke-width="2" stroke="hsl(18, 50%, 50%)" fill="none" opacity="0.84"></circle><circle r="6" cx="449" cy="290" stroke-width="2" stroke="hsl(32, 50%, 50%)" fill="none" opacity="0.19"></circle><circle r="6" cx="746" cy="85" stroke-width="2" stroke="hsl(202, 50%, 50%)" fill="none" opacity="0.94"></circle><circle r="7.5" cx="228" cy="167" stroke-width="2" stroke="hsl(166, 50%, 50%)" fill="none" opacity="0.67"></circle><circle r="3" cx="339" cy="128" stroke-width="2" stroke="hsl(39, 50%, 50%)" fill="none" opacity="0.95"></circle><circle r="7" cx="471" cy="669" stroke-width="2" stroke="hsl(58, 50%, 50%)" fill="none" opacity="0.77"></circle><circle r="5.5" cx="574" cy="735" stroke-width="2" stroke="hsl(230, 50%, 50%)" fill="none" opacity="0.86"></circle><circle r="13" cx="526" cy="481" stroke-width="2" stroke="hsl(164, 50%, 50%)" fill="none" opacity="0.40"></circle><circle r="6" cx="260" cy="116" stroke-width="2" stroke="hsl(141, 50%, 50%)" fill="none" opacity="0.45"></circle><circle r="14" cx="31" cy="268" stroke-width="2" stroke="hsl(204, 50%, 50%)" fill="none" opacity="0.92"></circle><circle r="6.5" cx="349" cy="340" stroke-width="2" stroke="hsl(44, 50%, 50%)" fill="none" opacity="0.74"></circle><circle r="13.5" cx="659" cy="275" stroke-width="2" stroke="hsl(291, 50%, 50%)" fill="none" opacity="0.77"></circle><circle r="19.5" cx="594" cy="198" stroke-width="2" stroke="hsl(264, 50%, 50%)" fill="none" opacity="0.59"></circle><circle r="5.5" cx="330" cy="513" stroke-width="2" stroke="hsl(55, 50%, 50%)" fill="none" opacity="0.77"></circle><circle r="7" cx="403" cy="355" stroke-width="2" stroke="hsl(16, 50%, 50%)" fill="none" opacity="0.90"></circle><circle r="13" cx="730" cy="195" stroke-width="2" stroke="hsl(226, 50%, 50%)" fill="none" opacity="0.19"></circle><circle r="7" cx="281" cy="154" stroke-width="2" stroke="hsl(104, 50%, 50%)" fill="none" opacity="0.86"></circle><circle r="2.5" cx="369" cy="134" stroke-width="2" stroke="hsl(27, 50%, 50%)" fill="none" opacity="0.85"></circle><circle r="11.5" cx="165" cy="76" stroke-width="2" stroke="hsl(262, 50%, 50%)" fill="none" opacity="0.10"></circle><circle r="3" cx="407" cy="11" stroke-width="2" stroke="hsl(30, 50%, 50%)" fill="none" opacity="0.83"></circle><circle r="13.5" cx="24" cy="438" stroke-width="2" stroke="hsl(198, 50%, 50%)" fill="none" opacity="0.35"></circle><circle r="11.5" cx="644" cy="359" stroke-width="2" stroke="hsl(292, 50%, 50%)" fill="none" opacity="0.26"></circle><circle r="9" cx="693" cy="70" stroke-width="2" stroke="hsl(233, 50%, 50%)" fill="none" opacity="0.33"></circle><circle r="7.5" cx="319" cy="779" stroke-width="2" stroke="hsl(67, 50%, 50%)" fill="none" opacity="0.53"></circle><circle r="8" cx="516" cy="398" stroke-width="2" stroke="hsl(141, 50%, 50%)" fill="none" opacity="0.60"></circle><circle r="7" cx="684" cy="647" stroke-width="2" stroke="hsl(278, 50%, 50%)" fill="none" opacity="0.84"></circle><circle r="5.5" cx="421" cy="700" stroke-width="2" stroke="hsl(18, 50%, 50%)" fill="none" opacity="0.48"></circle><circle r="7.5" cx="298" cy="194" stroke-width="2" stroke="hsl(95, 50%, 50%)" fill="none" opacity="0.32"></circle><circle r="5" cx="789" cy="114" stroke-width="2" stroke="hsl(149, 50%, 50%)" fill="none" opacity="0.62"></circle><circle r="8.5" cx="133" cy="371" stroke-width="2" stroke="hsl(231, 50%, 50%)" fill="none" opacity="0.37"></circle><circle r="5" cx="396" cy="258" stroke-width="2" stroke="hsl(17, 50%, 50%)" fill="none" opacity="0.26"></circle><circle r="9.5" cx="91" cy="198" stroke-width="2" stroke="hsl(228, 50%, 50%)" fill="none" opacity="0.89"></circle><circle r="6.5" cx="311" cy="65" stroke-width="2" stroke="hsl(67, 50%, 50%)" fill="none" opacity="0.68"></circle><circle r="7.5" cx="363" cy="390" stroke-width="2" stroke="hsl(26, 50%, 50%)" fill="none" opacity="0.44"></circle><circle r="9" cx="559" cy="704" stroke-width="2" stroke="hsl(210, 50%, 50%)" fill="none" opacity="0.63"></circle><circle r="6" cx="25" cy="526" stroke-width="2" stroke="hsl(204, 50%, 50%)" fill="none" opacity="0.30"></circle><circle r="7" cx="450" cy="387" stroke-width="2" stroke="hsl(32, 50%, 50%)" fill="none" opacity="0.23"></circle><circle r="11" cx="572" cy="644" stroke-width="2" stroke="hsl(230, 50%, 50%)" fill="none" opacity="0.42"></circle><circle r="8" cx="125" cy="635" stroke-width="2" stroke="hsl(232, 50%, 50%)" fill="none" opacity="0.67"></circle><circle r="13" cx="738" cy="722" stroke-width="2" stroke="hsl(210, 50%, 50%)" fill="none" opacity="0.49"></circle><circle r="11.5" cx="621" cy="389" stroke-width="2" stroke="hsl(286, 50%, 50%)" fill="none" opacity="0.77"></circle><circle r="8.5" cx="764" cy="26" stroke-width="2" stroke="hsl(206, 50%, 50%)" fill="none" opacity="0.38"></circle><circle r="8.5" cx="208" cy="578" stroke-width="2" stroke="hsl(193, 50%, 50%)" fill="none" opacity="0.86"></circle><circle r="5" cx="382" cy="453" stroke-width="2" stroke="hsl(21, 50%, 50%)" fill="none" opacity="0.18"></circle><circle r="9" cx="283" cy="622" stroke-width="2" stroke="hsl(109, 50%, 50%)" fill="none" opacity="0.43"></circle><circle r="7.5" cx="360" cy="736" stroke-width="2" stroke="hsl(34, 50%, 50%)" fill="none" opacity="0.16"></circle><circle r="6" cx="413" cy="427" stroke-width="2" stroke="hsl(18, 50%, 50%)" fill="none" opacity="0.82"></circle><circle r="3" cx="375" cy="309" stroke-width="2" stroke="hsl(21, 50%, 50%)" fill="none" opacity="0.80"></circle><circle r="11.5" cx="722" cy="617" stroke-width="2" stroke="hsl(242, 50%, 50%)" fill="none" opacity="0.96"></circle><circle r="14" cx="722" cy="502" stroke-width="2" stroke="hsl(242, 50%, 50%)" fill="none" opacity="0.79"></circle><circle r="8" cx="773" cy="303" stroke-width="2" stroke="hsl(175, 50%, 50%)" fill="none" opacity="0.36"></circle><circle r="5.5" cx="388" cy="582" stroke-width="2" stroke="hsl(17, 50%, 50%)" fill="none" opacity="0.80"></circle><circle r="5" cx="467" cy="14" stroke-width="2" stroke="hsl(85, 50%, 50%)" fill="none" opacity="0.98"></circle><circle r="7" cx="156" cy="11" stroke-width="2" stroke="hsl(282, 50%, 50%)" fill="none" opacity="0.68"></circle><circle r="4.5" cx="383" cy="88" stroke-width="2" stroke="hsl(24, 50%, 50%)" fill="none" opacity="0.88"></circle><circle r="6" cx="764" cy="113" stroke-width="2" stroke="hsl(176, 50%, 50%)" fill="none" opacity="0.13"></circle><circle r="8.5" cx="234" cy="135" stroke-width="2" stroke="hsl(174, 50%, 50%)" fill="none" opacity="0.39"></circle><circle r="9.5" cx="780" cy="400" stroke-width="2" stroke="hsl(157, 50%, 50%)" fill="none" opacity="0.60"></circle><circle r="10.5" cx="292" cy="724" stroke-width="2" stroke="hsl(95, 50%, 50%)" fill="none" opacity="0.76"></circle><circle r="12.5" cx="566" cy="511" stroke-width="2" stroke="hsl(230, 50%, 50%)" fill="none" opacity="0.98"></circle><circle r="3" cx="439" cy="9" stroke-width="2" stroke="hsl(63, 50%, 50%)" fill="none" opacity="0.10"></circle><circle r="8.5" cx="571" cy="310" stroke-width="2" stroke="hsl(230, 50%, 50%)" fill="none" opacity="0.68"></circle><circle r="9" cx="141" cy="195" stroke-width="2" stroke="hsl(229, 50%, 50%)" fill="none" opacity="0.15"></circle><circle r="5.5" cx="406" cy="302" stroke-width="2" stroke="hsl(16, 50%, 50%)" fill="none" opacity="0.91"></circle><circle r="8.5" cx="216" cy="546" stroke-width="2" stroke="hsl(181, 50%, 50%)" fill="none" opacity="0.31"></circle><circle r="9.5" cx="734" cy="24" stroke-width="2" stroke="hsl(224, 50%, 50%)" fill="none" opacity="0.97"></circle><circle r="8" cx="678" cy="113" stroke-width="2" stroke="hsl(258, 50%, 50%)" fill="none" opacity="0.36"></circle><circle r="12.5" cx="628" cy="705" stroke-width="2" stroke="hsl(291, 50%, 50%)" fill="none" opacity="0.66"></circle><circle r="6" cx="389" cy="38" stroke-width="2" stroke="hsl(23, 50%, 50%)" fill="none" opacity="0.44"></circle><circle r="13" cx="626" cy="23" stroke-width="2" stroke="hsl(230, 50%, 50%)" fill="none" opacity="0.73"></circle><circle r="12" cx="97" cy="732" stroke-width="2" stroke="hsl(228, 50%, 50%)" fill="none" opacity="0.50"></circle><circle r="11" cx="19" cy="559" stroke-width="2" stroke="hsl(198, 50%, 50%)" fill="none" opacity="0.86"></circle><circle r="10" cx="494" cy="313" stroke-width="2" stroke="hsl(96, 50%, 50%)" fill="none" opacity="0.51"></circle><circle r="6" cx="484" cy="783" stroke-width="2" stroke="hsl(76, 50%, 50%)" fill="none" opacity="0.60"></circle><circle r="6.5" cx="169" cy="788" stroke-width="2" stroke="hsl(220, 50%, 50%)" fill="none" opacity="0.93"></circle><circle r="5.5" cx="454" cy="201" stroke-width="2" stroke="hsl(43, 50%, 50%)" fill="none" opacity="0.37"></circle><circle r="10.5" cx="116" cy="272" stroke-width="2" stroke="hsl(232, 50%, 50%)" fill="none" opacity="0.89"></circle><circle r="6" cx="347" cy="558" stroke-width="2" stroke="hsl(44, 50%, 50%)" fill="none" opacity="0.99"></circle><circle r="11.5" cx="60" cy="779" stroke-width="2" stroke="hsl(215, 50%, 50%)" fill="none" opacity="0.86"></circle><circle r="17" cx="79" cy="416" stroke-width="2" stroke="hsl(225, 50%, 50%)" fill="none" opacity="0.83"></circle><circle r="6" cx="350" cy="74" stroke-width="2" stroke="hsl(32, 50%, 50%)" fill="none" opacity="0.33"></circle><circle r="7" cx="459" cy="342" stroke-width="2" stroke="hsl(43, 50%, 50%)" fill="none" opacity="0.18"></circle><circle r="13" cx="762" cy="455" stroke-width="2" stroke="hsl(193, 50%, 50%)" fill="none" opacity="0.13"></circle><circle r="6.5" cx="280" cy="775" stroke-width="2" stroke="hsl(109, 50%, 50%)" fill="none" opacity="0.22"></circle><circle r="16" cx="103" cy="136" stroke-width="2" stroke="hsl(250, 50%, 50%)" fill="none" opacity="0.26"></circle><circle r="8" cx="262" cy="85" stroke-width="2" stroke="hsl(144, 50%, 50%)" fill="none" opacity="0.36"></circle><circle r="13" cx="171" cy="507" stroke-width="2" stroke="hsl(220, 50%, 50%)" fill="none" opacity="0.65"></circle><circle r="13" cx="176" cy="122" stroke-width="2" stroke="hsl(235, 50%, 50%)" fill="none" opacity="0.34"></circle><circle r="6" cx="311" cy="143" stroke-width="2" stroke="hsl(74, 50%, 50%)" fill="none" opacity="0.71"></circle><circle r="6" cx="373" cy="223" stroke-width="2" stroke="hsl(26, 50%, 50%)" fill="none" opacity="0.25"></circle><circle r="7.5" cx="338" cy="607" stroke-width="2" stroke="hsl(44, 50%, 50%)" fill="none" opacity="0.74"></circle><circle r="6" cx="416" cy="150" stroke-width="2" stroke="hsl(28, 50%, 50%)" fill="none" opacity="0.27"></circle><circle r="14" cx="105" cy="526" stroke-width="2" stroke="hsl(231, 50%, 50%)" fill="none" opacity="0.92"></circle><circle r="9.5" cx="222" cy="509" stroke-width="2" stroke="hsl(181, 50%, 50%)" fill="none" opacity="0.14"></circle><circle r="10.5" cx="614" cy="422" stroke-width="2" stroke="hsl(286, 50%, 50%)" fill="none" opacity="0.94"></circle><circle r="7" cx="429" cy="579" stroke-width="2" stroke="hsl(23, 50%, 50%)" fill="none" opacity="0.49"></circle><circle r="5.5" cx="340" cy="203" stroke-width="2" stroke="hsl(44, 50%, 50%)" fill="none" opacity="0.70"></circle><circle r="8.5" cx="714" cy="651" stroke-width="2" stroke="hsl(242, 50%, 50%)" fill="none" opacity="0.89"></circle><circle r="8.5" cx="471" cy="484" stroke-width="2" stroke="hsl(58, 50%, 50%)" fill="none" opacity="0.18"></circle><circle r="7" cx="521" cy="778" stroke-width="2" stroke="hsl(141, 50%, 50%)" fill="none" opacity="0.76"></circle><circle r="5" cx="182" cy="253" stroke-width="2" stroke="hsl(212, 50%, 50%)" fill="none" opacity="0.74"></circle><circle r="3" cx="333" cy="110" stroke-width="2" stroke="hsl(47, 50%, 50%)" fill="none" opacity="0.96"></circle><circle r="6.5" cx="374" cy="641" stroke-width="2" stroke="hsl(26, 50%, 50%)" fill="none" opacity="0.56"></circle><circle r="10" cx="224" cy="728" stroke-width="2" stroke="hsl(181, 50%, 50%)" fill="none" opacity="0.48"></circle><circle r="8" cx="772" cy="647" stroke-width="2" stroke="hsl(175, 50%, 50%)" fill="none" opacity="0.56"></circle><circle r="9" cx="308" cy="375" stroke-width="2" stroke="hsl(80, 50%, 50%)" fill="none" opacity="0.40"></circle><circle r="9" cx="222" cy="264" stroke-width="2" stroke="hsl(181, 50%, 50%)" fill="none" opacity="0.32"></circle><circle r="10.5" cx="527" cy="229" stroke-width="2" stroke="hsl(164, 50%, 50%)" fill="none" opacity="0.68"></circle><circle r="9.5" cx="755" cy="782" stroke-width="2" stroke="hsl(193, 50%, 50%)" fill="none" opacity="0.92"></circle><circle r="6.5" cx="668" cy="629" stroke-width="2" stroke="hsl(286, 50%, 50%)" fill="none" opacity="0.37"></circle><circle r="7.5" cx="508" cy="641" stroke-width="2" stroke="hsl(118, 50%, 50%)" fill="none" opacity="0.60"></circle><circle r="9.5" cx="463" cy="614" stroke-width="2" stroke="hsl(58, 50%, 50%)" fill="none" opacity="0.76"></circle><circle r="10" cx="134" cy="748" stroke-width="2" stroke="hsl(231, 50%, 50%)" fill="none" opacity="0.83"></circle><circle r="17" cx="555" cy="138" stroke-width="2" stroke="hsl(212, 50%, 50%)" fill="none" opacity="0.95"></circle><circle r="4.5" cx="408" cy="202" stroke-width="2" stroke="hsl(16, 50%, 50%)" fill="none" opacity="0.21"></circle><circle r="11.5" cx="86" cy="24" stroke-width="2" stroke="hsl(271, 50%, 50%)" fill="none" opacity="0.30"></circle><circle r="6" cx="343" cy="22" stroke-width="2" stroke="hsl(21, 50%, 50%)" fill="none" opacity="0.47"></circle><circle r="12.5" cx="560" cy="604" stroke-width="2" stroke="hsl(210, 50%, 50%)" fill="none" opacity="0.14"></circle><circle r="11" cx="777" cy="242" stroke-width="2" stroke="hsl(157, 50%, 50%)" fill="none" opacity="0.78"></circle><circle r="7.5" cx="208" cy="234" stroke-width="2" stroke="hsl(193, 50%, 50%)" fill="none" opacity="0.41"></circle><circle r="7" cx="219" cy="15" stroke-width="2" stroke="hsl(203, 50%, 50%)" fill="none" opacity="0.14"></circle><circle r="14.5" cx="644" cy="458" stroke-width="2" stroke="hsl(292, 50%, 50%)" fill="none" opacity="0.11"></circle><circle r="8.5" cx="554" cy="776" stroke-width="2" stroke="hsl(210, 50%, 50%)" fill="none" opacity="0.66"></circle><circle r="12.5" cx="698" cy="266" stroke-width="2" stroke="hsl(268, 50%, 50%)" fill="none" opacity="0.30"></circle><circle r="6.5" cx="452" cy="438" stroke-width="2" stroke="hsl(43, 50%, 50%)" fill="none" opacity="0.30"></circle><circle r="12" cx="735" cy="251" stroke-width="2" stroke="hsl(226, 50%, 50%)" fill="none" opacity="0.34"></circle><circle r="6" cx="741" cy="662" stroke-width="2" stroke="hsl(210, 50%, 50%)" fill="none" opacity="0.82"></circle><circle r="5" cx="420" cy="739" stroke-width="2" stroke="hsl(18, 50%, 50%)" fill="none" opacity="0.90"></circle><circle r="10" cx="743" cy="402" stroke-width="2" stroke="hsl(210, 50%, 50%)" fill="none" opacity="0.84"></circle><circle r="9.5" cx="209" cy="350" stroke-width="2" stroke="hsl(193, 50%, 50%)" fill="none" opacity="0.14"></circle><circle r="3.5" cx="352" cy="148" stroke-width="2" stroke="hsl(32, 50%, 50%)" fill="none" opacity="0.23"></circle><circle r="6" cx="375" cy="174" stroke-width="2" stroke="hsl(26, 50%, 50%)" fill="none" opacity="0.93"></circle><circle r="14" cx="654" cy="571" stroke-width="2" stroke="hsl(291, 50%, 50%)" fill="none" opacity="0.60"></circle><circle r="9.5" cx="208" cy="195" stroke-width="2" stroke="hsl(193, 50%, 50%)" fill="none" opacity="0.88"></circle><circle r="8" cx="273" cy="291" stroke-width="2" stroke="hsl(124, 50%, 50%)" fill="none" opacity="0.51"></circle><circle r="8" cx="493" cy="433" stroke-width="2" stroke="hsl(96, 50%, 50%)" fill="none" opacity="0.62"></circle><circle r="9" cx="22" cy="85" stroke-width="2" stroke="hsl(195, 50%, 50%)" fill="none" opacity="0.66"></circle><circle r="12" cx="761" cy="529" stroke-width="2" stroke="hsl(193, 50%, 50%)" fill="none" opacity="0.23"></circle><circle r="6.5" cx="296" cy="492" stroke-width="2" stroke="hsl(95, 50%, 50%)" fill="none" opacity="0.76"></circle><circle r="6.5" cx="284" cy="552" stroke-width="2" stroke="hsl(109, 50%, 50%)" fill="none" opacity="0.55"></circle><circle r="20.5" cx="615" cy="130" stroke-width="2" stroke="hsl(270, 50%, 50%)" fill="none" opacity="0.62"></circle><circle r="8.5" cx="187" cy="736" stroke-width="2" stroke="hsl(212, 50%, 50%)" fill="none" opacity="0.57"></circle><circle r="7.5" cx="247" cy="639" stroke-width="2" stroke="hsl(154, 50%, 50%)" fill="none" opacity="0.79"></circle><circle r="9" cx="520" cy="361" stroke-width="2" stroke="hsl(141, 50%, 50%)" fill="none" opacity="0.33"></circle><circle r="11.5" cx="57" cy="727" stroke-width="2" stroke="hsl(215, 50%, 50%)" fill="none" opacity="0.31"></circle><circle r="9.5" cx="238" cy="44" stroke-width="2" stroke="hsl(163, 50%, 50%)" fill="none" opacity="0.23"></circle><circle r="5.5" cx="273" cy="14" stroke-width="2" stroke="hsl(110, 50%, 50%)" fill="none" opacity="0.53"></circle><circle r="6" cx="300" cy="458" stroke-width="2" stroke="hsl(80, 50%, 50%)" fill="none" opacity="0.38"></circle><circle r="8" cx="262" cy="198" stroke-width="2" stroke="hsl(139, 50%, 50%)" fill="none" opacity="0.42"></circle><circle r="10" cx="761" cy="597" stroke-width="2" stroke="hsl(193, 50%, 50%)" fill="none" opacity="0.11"></circle><circle r="10" cx="542" cy="432" stroke-width="2" stroke="hsl(187, 50%, 50%)" fill="none" opacity="0.63"></circle><circle r="14.5" cx="23" cy="352" stroke-width="2" stroke="hsl(198, 50%, 50%)" fill="none" opacity="0.82"></circle><circle r="11" cx="776" cy="195" stroke-width="2" stroke="hsl(157, 50%, 50%)" fill="none" opacity="0.59"></circle><circle r="10" cx="597" cy="452" stroke-width="2" stroke="hsl(264, 50%, 50%)" fill="none" opacity="0.47"></circle><circle r="10.5" cx="517" cy="181" stroke-width="2" stroke="hsl(144, 50%, 50%)" fill="none" opacity="0.42"></circle><circle r="4" cx="458" cy="42" stroke-width="2" stroke="hsl(67, 50%, 50%)" fill="none" opacity="0.19"></circle><circle r="3" cx="354" cy="295" stroke-width="2" stroke="hsl(34, 50%, 50%)" fill="none" opacity="0.77"></circle><circle r="7.5" cx="487" cy="708" stroke-width="2" stroke="hsl(76, 50%, 50%)" fill="none" opacity="0.52"></circle><circle r="4.5" cx="365" cy="524" stroke-width="2" stroke="hsl(26, 50%, 50%)" fill="none" opacity="0.25"></circle><circle r="7" cx="315" cy="421" stroke-width="2" stroke="hsl(67, 50%, 50%)" fill="none" opacity="0.58"></circle><circle r="8.5" cx="671" cy="606" stroke-width="2" stroke="hsl(286, 50%, 50%)" fill="none" opacity="0.59"></circle><circle r="10" cx="211" cy="648" stroke-width="2" stroke="hsl(193, 50%, 50%)" fill="none" opacity="0.37"></circle><circle r="9" cx="607" cy="318" stroke-width="2" stroke="hsl(277, 50%, 50%)" fill="none" opacity="0.17"></circle><circle r="4" cx="433" cy="257" stroke-width="2" stroke="hsl(23, 50%, 50%)" fill="none" opacity="0.71"></circle><circle r="8.5" cx="273" cy="423" stroke-width="2" stroke="hsl(124, 50%, 50%)" fill="none" opacity="0.56"></circle><circle r="14.5" cx="30" cy="655" stroke-width="2" stroke="hsl(204, 50%, 50%)" fill="none" opacity="0.57"></circle><circle r="13.5" cx="552" cy="78" stroke-width="2" stroke="hsl(193, 50%, 50%)" fill="none" opacity="0.73"></circle><circle r="8" cx="783" cy="155" stroke-width="2" stroke="hsl(159, 50%, 50%)" fill="none" opacity="0.27"></circle><circle r="6.5" cx="317" cy="230" stroke-width="2" stroke="hsl(67, 50%, 50%)" fill="none" opacity="0.98"></circle><circle r="13" cx="92" cy="80" stroke-width="2" stroke="hsl(266, 50%, 50%)" fill="none" opacity="0.21"></circle><circle r="14" cx="706" cy="761" stroke-width="2" stroke="hsl(256, 50%, 50%)" fill="none" opacity="0.95"></circle><circle r="12" cx="29" cy="605" stroke-width="2" stroke="hsl(204, 50%, 50%)" fill="none" opacity="0.69"></circle><circle r="8.5" cx="17" cy="17" stroke-width="2" stroke="hsl(198, 50%, 50%)" fill="none" opacity="0.83"></circle><circle r="7.5" cx="483" cy="264" stroke-width="2" stroke="hsl(76, 50%, 50%)" fill="none" opacity="0.29"></circle><circle r="10" cx="511" cy="590" stroke-width="2" stroke="hsl(118, 50%, 50%)" fill="none" opacity="0.81"></circle><circle r="9" cx="254" cy="480" stroke-width="2" stroke="hsl(139, 50%, 50%)" fill="none" opacity="0.42"></circle><circle r="8" cx="783" cy="354" stroke-width="2" stroke="hsl(157, 50%, 50%)" fill="none" opacity="0.52"></circle><circle r="10.5" cx="162" cy="465" stroke-width="2" stroke="hsl(225, 50%, 50%)" fill="none" opacity="1.00"></circle><circle r="4" cx="431" cy="35" stroke-width="2" stroke="hsl(45, 50%, 50%)" fill="none" opacity="0.20"></circle><circle r="10" cx="18" cy="495" stroke-width="2" stroke="hsl(198, 50%, 50%)" fill="none" opacity="0.82"></circle><circle r="12" cx="157" cy="162" stroke-width="2" stroke="hsl(234, 50%, 50%)" fill="none" opacity="0.11"></circle><circle r="12" cx="150" cy="712" stroke-width="2" stroke="hsl(229, 50%, 50%)" fill="none" opacity="0.74"></circle><circle r="11" cx="183" cy="317" stroke-width="2" stroke="hsl(212, 50%, 50%)" fill="none" opacity="0.69"></circle><circle r="4" cx="431" cy="224" stroke-width="2" stroke="hsl(23, 50%, 50%)" fill="none" opacity="0.75"></circle><circle r="11" cx="601" cy="781" stroke-width="2" stroke="hsl(277, 50%, 50%)" fill="none" opacity="0.95"></circle><circle r="15" cx="67" cy="303" stroke-width="2" stroke="hsl(221, 50%, 50%)" fill="none" opacity="0.71"></circle><circle r="9.5" cx="180" cy="279" stroke-width="2" stroke="hsl(212, 50%, 50%)" fill="none" opacity="0.53"></circle><circle r="8" cx="240" cy="228" stroke-width="2" stroke="hsl(154, 50%, 50%)" fill="none" opacity="0.31"></circle><circle r="9" cx="570" cy="463" stroke-width="2" stroke="hsl(230, 50%, 50%)" fill="none" opacity="0.79"></circle><circle r="11.5" cx="94" cy="237" stroke-width="2" stroke="hsl(228, 50%, 50%)" fill="none" opacity="0.32"></circle><circle r="4" cx="402" cy="479" stroke-width="2" stroke="hsl(16, 50%, 50%)" fill="none" opacity="0.38"></circle><circle r="7" cx="235" cy="604" stroke-width="2" stroke="hsl(168, 50%, 50%)" fill="none" opacity="0.52"></circle><circle r="5.5" cx="353" cy="437" stroke-width="2" stroke="hsl(34, 50%, 50%)" fill="none" opacity="0.71"></circle><circle r="11" cx="643" cy="517" stroke-width="2" stroke="hsl(292, 50%, 50%)" fill="none" opacity="0.41"></circle><circle r="8" cx="497" cy="105" stroke-width="2" stroke="hsl(110, 50%, 50%)" fill="none" opacity="0.83"></circle><circle r="11" cx="527" cy="726" stroke-width="2" stroke="hsl(164, 50%, 50%)" fill="none" opacity="0.21"></circle><circle r="11" cx="608" cy="658" stroke-width="2" stroke="hsl(277, 50%, 50%)" fill="none" opacity="0.18"></circle><circle r="9" cx="780" cy="750" stroke-width="2" stroke="hsl(157, 50%, 50%)" fill="none" opacity="0.90"></circle><circle r="4" cx="408" cy="110" stroke-width="2" stroke="hsl(28, 50%, 50%)" fill="none" opacity="0.53"></circle><circle r="13.5" cx="701" cy="347" stroke-width="2" stroke="hsl(256, 50%, 50%)" fill="none" opacity="0.85"></circle><circle r="8" cx="247" cy="768" stroke-width="2" stroke="hsl(154, 50%, 50%)" fill="none" opacity="0.63"></circle><circle r="8" cx="173" cy="212" stroke-width="2" stroke="hsl(220, 50%, 50%)" fill="none" opacity="0.59"></circle><circle r="5.5" cx="460" cy="93" stroke-width="2" stroke="hsl(63, 50%, 50%)" fill="none" opacity="0.34"></circle><circle r="14" cx="626" cy="241" stroke-width="2" stroke="hsl(291, 50%, 50%)" fill="none" opacity="0.39"></circle><circle r="12.5" cx="96" cy="612" stroke-width="2" stroke="hsl(228, 50%, 50%)" fill="none" opacity="0.55"></circle><circle r="13" cx="583" cy="39" stroke-width="2" stroke="hsl(207, 50%, 50%)" fill="none" opacity="0.25"></circle><circle r="8" cx="728" cy="373" stroke-width="2" stroke="hsl(226, 50%, 50%)" fill="none" opacity="0.64"></circle><circle r="6" cx="305" cy="104" stroke-width="2" stroke="hsl(72, 50%, 50%)" fill="none" opacity="0.29"></circle><circle r="9" cx="669" cy="138" stroke-width="2" stroke="hsl(274, 50%, 50%)" fill="none" opacity="0.54"></circle><circle r="6.5" cx="729" cy="101" stroke-width="2" stroke="hsl(215, 50%, 50%)" fill="none" opacity="0.26"></circle><circle r="6.5" cx="759" cy="138" stroke-width="2" stroke="hsl(191, 50%, 50%)" fill="none" opacity="0.67"></circle><circle r="10.5" cx="518" cy="23" stroke-width="2" stroke="hsl(144, 50%, 50%)" fill="none" opacity="0.31"></circle><circle r="7" cx="481" cy="222" stroke-width="2" stroke="hsl(76, 50%, 50%)" fill="none" opacity="0.35"></circle><circle r="10" cx="596" cy="348" stroke-width="2" stroke="hsl(264, 50%, 50%)" fill="none" opacity="0.29"></circle><circle r="6" cx="455" cy="157" stroke-width="2" stroke="hsl(54, 50%, 50%)" fill="none" opacity="0.97"></circle><circle r="5.5" cx="789" cy="44" stroke-width="2" stroke="hsl(187, 50%, 50%)" fill="none" opacity="0.12"></circle><circle r="9" cx="145" cy="339" stroke-width="2" stroke="hsl(229, 50%, 50%)" fill="none" opacity="0.22"></circle><circle r="18" cx="148" cy="560" stroke-width="2" stroke="hsl(229, 50%, 50%)" fill="none" opacity="0.46"></circle><circle r="9.5" cx="211" cy="781" stroke-width="2" stroke="hsl(193, 50%, 50%)" fill="none" opacity="0.72"></circle><circle r="9.5" cx="259" cy="382" stroke-width="2" stroke="hsl(139, 50%, 50%)" fill="none" opacity="0.52"></circle><circle r="11" cx="120" cy="18" stroke-width="2" stroke="hsl(292, 50%, 50%)" fill="none" opacity="0.44"></circle><circle r="6.5" cx="468" cy="752" stroke-width="2" stroke="hsl(58, 50%, 50%)" fill="none" opacity="0.95"></circle><circle r="7.5" cx="30" cy="143" stroke-width="2" stroke="hsl(202, 50%, 50%)" fill="none" opacity="0.99"></circle><circle r="5" cx="309" cy="535" stroke-width="2" stroke="hsl(80, 50%, 50%)" fill="none" opacity="0.88"></circle><circle r="17" cx="679" cy="207" stroke-width="2" stroke="hsl(278, 50%, 50%)" fill="none" opacity="0.71"></circle><circle r="8.5" cx="592" cy="713" stroke-width="2" stroke="hsl(264, 50%, 50%)" fill="none" opacity="0.23"></circle><circle r="10" cx="679" cy="529" stroke-width="2" stroke="hsl(278, 50%, 50%)" fill="none" opacity="0.99"></circle><circle r="10.5" cx="19" cy="715" stroke-width="2" stroke="hsl(198, 50%, 50%)" fill="none" opacity="0.31"></circle><circle r="8.5" cx="543" cy="328" stroke-width="2" stroke="hsl(187, 50%, 50%)" fill="none" opacity="0.71"></circle><circle r="7" cx="493" cy="142" stroke-width="2" stroke="hsl(108, 50%, 50%)" fill="none" opacity="0.22"></circle><circle r="7.5" cx="686" cy="13" stroke-width="2" stroke="hsl(232, 50%, 50%)" fill="none" opacity="0.41"></circle><circle r="7.5" cx="21" cy="48" stroke-width="2" stroke="hsl(197, 50%, 50%)" fill="none" opacity="0.91"></circle><circle r="10.5" cx="570" cy="375" stroke-width="2" stroke="hsl(230, 50%, 50%)" fill="none" opacity="0.18"></circle><circle r="9.5" cx="133" cy="47" stroke-width="2" stroke="hsl(289, 50%, 50%)" fill="none" opacity="0.52"></circle><circle r="14" cx="620" cy="548" stroke-width="2" stroke="hsl(286, 50%, 50%)" fill="none" opacity="0.23"></circle><circle r="10.5" cx="125" cy="307" stroke-width="2" stroke="hsl(232, 50%, 50%)" fill="none" opacity="0.66"></circle><circle r="3" cx="330" cy="317" stroke-width="2" stroke="hsl(55, 50%, 50%)" fill="none" opacity="0.88"></circle><circle r="7.5" cx="579" cy="757" stroke-width="2" stroke="hsl(249, 50%, 50%)" fill="none" opacity="0.30"></circle><circle r="11" cx="117" cy="690" stroke-width="2" stroke="hsl(232, 50%, 50%)" fill="none" opacity="0.72"></circle><circle r="5" cx="330" cy="169" stroke-width="2" stroke="hsl(51, 50%, 50%)" fill="none" opacity="0.32"></circle><circle r="8" cx="703" cy="102" stroke-width="2" stroke="hsl(237, 50%, 50%)" fill="none" opacity="0.57"></circle><circle r="10.5" cx="533" cy="669" stroke-width="2" stroke="hsl(164, 50%, 50%)" fill="none" opacity="0.20"></circle><circle r="7" cx="264" cy="250" stroke-width="2" stroke="hsl(124, 50%, 50%)" fill="none" opacity="0.73"></circle><circle r="13" cx="514" cy="537" stroke-width="2" stroke="hsl(141, 50%, 50%)" fill="none" opacity="0.16"></circle><circle r="5" cx="414" cy="67" stroke-width="2" stroke="hsl(34, 50%, 50%)" fill="none" opacity="0.32"></circle><circle r="5" cx="430" cy="500" stroke-width="2" stroke="hsl(23, 50%, 50%)" fill="none" opacity="0.99"></circle><circle r="8" cx="167" cy="761" stroke-width="2" stroke="hsl(220, 50%, 50%)" fill="none" opacity="0.51"></circle></svg>