<?xml version="1.0" encoding="UTF-8"?>
<svg version="1.1" xmlns="http://www.w3.org/2000/svg" width="118" height="120">
<path d="M0 0 C1.57491211 0.92123657 1.57491211 0.92123657 3.18164062 1.86108398 C3.75442749 2.19583237 4.32721436 2.53058075 4.9173584 2.87547302 C6.1207054 3.58337303 7.32059261 4.29718458 8.51708984 5.01660156 C10.32293159 6.09821796 12.14333962 7.15130296 13.96679688 8.20288086 C21.62794253 12.70081048 29.61615354 17.42310044 32.25585938 26.42358398 C33.09598893 31.08124402 33.16836959 35.76090038 33.15039062 40.48217773 C33.16650391 41.32458008 33.18261719 42.16698242 33.19921875 43.03491211 C33.20554496 51.252664 31.65815063 58.62647466 25.90771484 64.77612305 C21.72198632 68.35260541 16.98318007 71.10126001 12.23413086 73.85375977 C10.39732884 74.92145749 8.57749727 76.0145225 6.7578125 77.11108398 C5.57839486 77.80665825 4.39808482 78.50072204 3.21679688 79.19311523 C2.16049072 79.8136377 1.10418457 80.43416016 0.01586914 81.0734863k3 C-3.46918926 82.68683517 -6.33912432 83.29203622 -10.16210938 83.54467773 C-13.89343349 81.93342414 -16.09027017 80.01698423 -18.16210938 76.54467773 C-18.55651855 73.37063599 -18.55651855 73.37063599 -18.58203125 69.57641602 C-18.59050079 68.88321259 -18.59897034 68.19000916 -18.60769653 67.47579956 C-18.63105776 65.18867544 -18.63208886 62.90222455 -18.63085938 60.61499023 C-18.63796228 59.02082043 -18.64566147 57.42665319 -18.65393066 55.83248901 C-18.66737397 52.49185074 -18.66894534 49.15144876 -18.66308594 45.81079102 C-18.65719437 41.5377814 -18.68775818 37.2659098 -18.72820282 32.99312019 C-18.75410402 29.70044894 -18.75695501 26.40805067 -18.75331116 23.1152916 C-18.75500063 21.5404665 -18.7646266 19.96562855 -18.78245544 18.39090347 C-18.80469217 16.18374697 -18.79492286 13.97887985 -18.77734375 11.77172852 C-18.77939819 10.51804474 -18.78145264 9.26436096 -18.78356934 7.97268677 C-17.95527524 3.40376868 -16.44940066 1.78451757 -13.16210938 -1.45532227 C-8.36965142 -3.05280825 -4.52993527 -2.08484745 0 0 Z " fill="#F9776B" transform="translate(18.162109375,19.455322265625)"/>
<path d="M0 0 C1.20416817 -0.00855011 1.20416817 -0.00855011 2.43266296 -0.01727295 C4.13144618 -0.02671539 5.83024765 -0.03325393 7.52905273 -0.03710938 C10.11670251 -0.04680004 12.70355271 -0.07782358 15.29101562 -0.109375 C16.94400572 -0.11590701 18.59700147 -0.12115671 20.25 -0.125 C21.01895096 -0.1373468 21.78790192 -0.1496936 22.58015442 -0.16241455 C32.14605229 -0.12312224 37.18845292 5.0453702 43.63671875 11.515625 C44.41208984 12.26263672 45.18746094 13.00964844 45.98632812 13.77929688 C49.1399318 16.92186432 51.4868082 19.2766198 53.0234375 23.49609375 C52.7738988 26.88688434 52.32967104 27.89473925 49.82421875 30.203125 C46.85104085 30.60505461 44.24528025 30.74987073 41.26953125 30.72070312 C40.3960907 30.7277124 39.52265015 30.73472168 38.6227417 30.74194336 C35.7312454 30.75957018 32.84072525 30.74788409 29.94921875 30.734375 C27.94286918 30.73706857 25.93652088 30.74094986 23.93017578 30.74597168 C19.72350649 30.75187308 15.51717673 30.74328304 11.31054688 30.72460938 C5.91302465 30.70181957 0.51629795 30.7149392 -4.88119507 30.73889923 C-9.0247194 30.75333981 -13.16805451 30.7487592 -17.31158447 30.73838806 C-19.30194187 30.73571596 -21.29231634 30.73900744 -23.28265381 30.74830627 C-26.06259798 30.75844322 -28.84124633 30.74301114 -31.62109375 30.72070312 C-32.44716125 30.72880005 -33.27322876 30.73689697 -34.12432861 30.74523926 C-39.66680114 30.66266324 -39.66680114 30.66266324 -42.21533203 28.36169434 C-43.59991287 25.24990696 -43.18117877 23.41528488 -42.17578125 20.203125 C-32.99255509 10.13868017 -13.32508307 0.07306871 0 0 Z " fill="#624BF5" transform="translate(58.17578125,89.796875)"/>
<path d="M0 0 C1.24449417 0.00135956 1.24449417 0.00135956 2.51412964 0.00274658 C3.82407143 -0.00732925 3.82407143 -0.00732925 5.16047668 -0.01760864 C8.05714554 -0.03665983 10.95358361 -0.04051633 13.85031128 -0.04266357 C15.85808916 -0.04908628 17.86586609 -0.05581424 19.87364197 -0.06283569 C24.08618338 -0.0748261 28.29864267 -0.07851468 32.51119995 -0.07733154 C37.91653947 -0.07712819 43.32135415 -0.10443913 48.72656918 -0.13887596 C52.87434826 -0.16108222 57.02199977 -0.16517103 61.16983223 -0.16411209 C63.16299818 -0.16647719 65.15616717 -0.17535149 67.14927483 -0.19077682 C69.93403052 -0.21031129 72.71763782 -0.20464861 75.50241089 -0.19256592 C76.33004944 -0.20380493 77.15768799 -0.21504395 78.01040649 -0.22662354 C83.56592982 -0.1651803 83.56592982 -0.1651803 86.11308289 2.13790894 C87.50527041 5.26398484 87.06640576 7.05389228 86.07296753 10.29327393 C84.38644409 12.59503174 84.38644409 12.59503174 82.21359253 14.74639893 C81.4272644 15.53014893 80.64093628 16.31389893 79.83078003 17.12139893 C78.58941284 18.32022705 78.58941284 18.32022705 77.32296753 19.54327393 C76.51085815 20.35796143 75.69874878 21.17264893 74.86203003 22.01202393 C68.37092812 28.39740757 64.20133152 30.58964251 54.98312378 30.73468018 C54.20214828 30.748452 53.42117279 30.76222382 52.61653137 30.77641296 C50.96332815 30.79963491 49.31003233 30.81692578 47.65670776 30.82867432 C45.17317968 30.85536858 42.69407867 30.93024973 40.2116394 31.00616455 C28.95992123 31.19296244 21.65539166 29.27595542 12.07296753 23.29327393 C11.13912231 22.74808105 10.2052771 22.20288818 9.24313354 21.64117432 C6.73441913 20.15789254 4.27604132 18.61648489 1.82296753 17.04327393 C0.99667847 16.52764893 0.1703894 16.01202393 -0.68093872 15.48077393 C-6.67144472 11.67665555 -6.67144472 11.67665555 -8.92703247 8.29327393 C-8.36825308 1.44822641 -6.83175771 0.07711476 0 0 Z " fill="#624BF5" transform="translate(23.927032470703125,-0.29327392578125)"/>
<path d="M0 0 C4.03654111 1.9828623 6.6500056 4.16579861 9 8 C10.676194 13.02858199 10.60642735 17.34030411 8.8125 22.25 C6.46100791 25.8177811 3.81557843 28.09221079 0 30 C-5.55879415 30.50761444 -10.43348556 30.71455045 -15.5625 28.375 C-19.76976732 24.27561133 -21.16580226 20.80523734 -21.375 15 C-21.16580226 9.19476266 -19.76976732 5.72438867 -15.5625 1.625 C-10.36577714 -0.74543499 -5.62114335 -0.77107591 0 0 Z " fill="#FA766B" transform="translate(77,45)"/>
</svg>
