<svg xmlns="http://www.w3.org/2000/svg" x="0px" y="0px" width="100" height="100" viewBox="0,0,256,256">
<defs><linearGradient x1="40.305" y1="8.523" x2="13.293" y2="35.535" gradientUnits="userSpaceOnUse" id="color-1_ipnrH5EdgdAm_gr1"><stop offset="0" stop-color="#fe606d" stop-opacity="0.47059"></stop><stop offset="0.15" stop-color="#fe7f7f" stop-opacity="0.50196"></stop><stop offset="0.436" stop-color="#fa5252" stop-opacity="0.5098"></stop><stop offset="0.684" stop-color="#fa5252" stop-opacity="0.2"></stop><stop offset="0.88" stop-color="#fa5252" stop-opacity="0.54118"></stop><stop offset="1" stop-color="#fa5252" stop-opacity="0.50196"></stop></linearGradient></defs><g fill="none" fill-rule="nonzero" stroke="none" stroke-width="none" stroke-linecap="none" stroke-linejoin="miter" stroke-miterlimit="10" stroke-dasharray="" stroke-dashoffset="0" font-family="none" font-weight="none" font-size="none" text-anchor="none" style="mix-blend-mode: normal"><g transform="scale(5.33333,5.33333)"><path d="M10.087,12.043l2.563,26.842c0.198,2.05 1.922,3.615 3.981,3.615h14.737c2.06,0 3.783,-1.564 3.981,-3.615l0.468,-4.837l0.683,-7.048l1.5,-15.5z" fill="url(#color-1_ipnrH5EdgdAm_gr1)" stroke="none" stroke-width="1" stroke-linecap="butt"></path><path d="M29.5,11.5v-0.5c0,-3.038 -2.462,-5.5 -5.5,-5.5c-3.038,0 -5.5,2.462 -5.5,5.5v0.5" fill="none" stroke="#fe5151" stroke-width="3" stroke-linecap="butt"></path><path d="M7.5,11.5h33" fill="none" stroke="#fe5151" stroke-width="3" stroke-linecap="round"></path><path d="M36.5,27l1.5,-15.5" fill="none" stroke="#fe5151" stroke-width="3" stroke-linecap="round"></path><path d="M10.684,18.572l1.966,20.313c0.198,2.05 1.922,3.615 3.981,3.615h14.737c2.06,0 3.783,-1.564 3.981,-3.615l0.468,-4.837" fill="none" stroke="#fe5151" stroke-width="3" stroke-linecap="round"></path></g></g>
</svg>